{"accessors":[{"bufferView":0,"componentType":5126,"count":1,"max":[0.0],"min":[0.0],"normalized":false,"type":"SCALAR"},{"bufferView":1,"componentType":5126,"count":1,"max":[158.0,-305.0,0.0],"min":[158.0,-305.0,0.0],"normalized":false,"type":"VEC3"},{"bufferView":2,"componentType":5126,"count":2,"max":[1.96666669845581],"min":[0.0333333350718021],"normalized":false,"type":"SCALAR"},{"bufferView":3,"componentType":5126,"count":2,"max":[447.0,-305.0,0.0],"min":[158.0,-305.0,0.0],"normalized":false,"type":"VEC3"},{"bufferView":4,"componentType":5126,"count":1,"max":[0.0],"min":[0.0],"normalized":false,"type":"SCALAR"},{"bufferView":5,"componentType":5126,"count":1,"max":[159.0,-239.0,0.0],"min":[159.0,-239.0,0.0],"normalized":false,"type":"VEC3"},{"bufferView":6,"componentType":5126,"count":2,"max":[1.96666669845581],"min":[0.0333333015441895],"normalized":false,"type":"SCALAR"},{"bufferView":7,"componentType":5126,"count":2,"max":[159.0,40.0,0.0],"min":[159.0,-272.0,0.0],"normalized":false,"type":"VEC3"}],"animations":[{"channels":[{"sampler":0,"target":{"node":9,"path":"translation"}}],"name":"RESET","samplers":[{"input":0,"interpolation":"LINEAR","output":1}]},{"channels":[{"sampler":0,"target":{"node":9,"path":"translation"}}],"name":"move","samplers":[{"input":2,"interpolation":"LINEAR","output":3}]},{"channels":[{"sampler":0,"target":{"node":12,"path":"translation"}}],"name":"RESET2","samplers":[{"input":4,"interpolation":"LINEAR","output":5}]},{"channels":[{"sampler":0,"target":{"node":12,"path":"translation"}}],"name":"move2","samplers":[{"input":6,"interpolation":"LINEAR","output":7}]}],"asset":{"generator":"Godot Engine v4.5.1.stable.official@f62fdbde15035c5576dad93e586201f4d41ef0cb","version":"2.0"},"bufferViews":[{"buffer":0,"byteLength":4},{"buffer":0,"byteLength":12,"byteOffset":4},{"buffer":0,"byteLength":8,"byteOffset":16},{"buffer":0,"byteLength":24,"byteOffset":24},{"buffer":0,"byteLength":4,"byteOffset":48},{"buffer":0,"byteLength":12,"byteOffset":52},{"buffer":0,"byteLength":8,"byteOffset":64},{"buffer":0,"byteLength":24,"byteOffset":72}],"buffers":[{"byteLength":96,"uri":"game0.bin"}],"extensionsUsed":["GODOT_single_root"],"nodes":[{"children":[1,2,3,7,9,12,15,18,21,24,27,30,33,36,39,42,45,48,51,54,57],"name":"Game"},{"name":"TextureRect"},{"name":"TileMap"},{"children":[4,5,6],"name":"Player"},{"name":"AnimatedSprite2D"},{"name":"CollisionShape2D"},{"name":"Camera2D"},{"children":[8],"name":"Killzone"},{"name":"CollisionShape2D2"},{"children":[10,11],"name":"Platform"},{"name":"Sprite2D"},{"name":"CollisionShape2D3"},{"children":[13,14],"name":"Platform2"},{"name":"Sprite2D2"},{"name":"CollisionShape2D4"},{"children":[16,17],"name":"Coin"},{"name":"AnimatedSprite2D2"},{"name":"CollisionShape2D5"},{"children":[19,20],"name":"Coin2"},{"name":"AnimatedSprite2D3"},{"name":"CollisionShape2D6"},{"children":[22,23],"name":"Coin3"},{"name":"AnimatedSprite2D4"},{"name":"CollisionShape2D7"},{"children":[25,26],"name":"Coin4"},{"name":"AnimatedSprite2D5"},{"name":"CollisionShape2D8"},{"children":[28,29],"name":"Coin5"},{"name":"AnimatedSprite2D6"},{"name":"CollisionShape2D9"},{"children":[31,32],"name":"Coin6"},{"name":"AnimatedSprite2D7"},{"name":"CollisionShape2D10"},{"children":[34,35],"name":"Coin7"},{"name":"AnimatedSprite2D8"},{"name":"CollisionShape2D11"},{"children":[37,38],"name":"Coin8"},{"name":"AnimatedSprite2D9"},{"name":"CollisionShape2D12"},{"children":[40,41],"name":"Coin9"},{"name":"AnimatedSprite2D10"},{"name":"CollisionShape2D13"},{"children":[43,44],"name":"Coin10"},{"name":"AnimatedSprite2D11"},{"name":"CollisionShape2D14"},{"children":[46,47],"name":"Coin11"},{"name":"AnimatedSprite2D12"},{"name":"CollisionShape2D15"},{"children":[49,50],"name":"Coin12"},{"name":"AnimatedSprite2D13"},{"name":"CollisionShape2D16"},{"children":[52,53],"name":"Coin13"},{"name":"AnimatedSprite2D14"},{"name":"CollisionShape2D17"},{"children":[55,56],"name":"Coin14"},{"name":"AnimatedSprite2D15"},{"name":"CollisionShape2D18"},{"children":[58,59],"name":"Coin15"},{"name":"AnimatedSprite2D16"},{"name":"CollisionShape2D19"}],"scene":0,"scenes":[{"nodes":[0]}]}